<svg width="64" height="64" viewBox="0 0 64 64" fill="none" xmlns="http://www.w3.org/2000/svg">
<path d="M60.2499 30.7495H56.7621L62.9017 24.6098C63.6097 23.9013 63.9999 22.9594 63.9999 21.958C63.9999 20.9565 63.6097 20.0146 62.9017 19.3066L57.3329 13.7378C56.8451 13.25 56.0536 13.25 55.5653 13.7378C54.8573 14.4463 53.9154 14.8364 52.914 14.8364C51.912 14.8364 50.9706 14.4463 50.2621 13.7378C49.5536 13.0298 49.164 12.0879 49.164 11.0864C49.164 10.0845 49.5541 9.14305 50.2621 8.43455C50.4965 8.20018 50.6283 7.88231 50.6283 7.55077C50.6283 7.21922 50.4965 6.90135 50.2621 6.66698L44.6938 1.09863C43.9853 0.390136 43.0439 0 42.0419 0C41.0405 0 40.0986 0.390136 39.3905 1.09863L18.7451 21.7436C18.2568 22.2314 18.2568 23.0229 18.7451 23.5112C19.2334 23.9995 20.0249 23.9995 20.5131 23.5112L41.1581 2.86621C41.3945 2.62988 41.7079 2.5 42.0419 2.5C42.3759 2.5 42.6899 2.62988 42.9257 2.86621L47.6986 7.63866C47.0253 8.65233 46.664 9.84178 46.664 11.0864C46.664 12.7558 47.3139 14.3252 48.4945 15.5058C49.6752 16.686 51.2445 17.3364 52.914 17.3364C54.1586 17.3364 55.3475 16.9751 56.3617 16.3017L61.1342 21.0742C61.6215 21.5615 61.6215 22.3545 61.1342 22.8418L53.2265 30.7495H47.7465L51.8534 26.6425C52.3412 26.1542 52.3412 25.3627 51.8534 24.875L39.1254 12.1469C38.6371 11.6587 37.8456 11.6587 37.3573 12.1469L18.7548 30.7495H3.74999C1.68213 30.7495 0 32.4316 0 34.4994V42.3744C0 43.0644 0.559569 43.6244 1.25 43.6244C3.31786 43.6244 4.99999 45.3066 4.99999 47.3744C4.99999 49.4418 3.31786 51.1244 1.25 51.1244C0.559569 51.1244 0 51.684 0 52.3744V60.2494C0 62.3168 1.68213 63.9994 3.74999 63.9994H60.2499C62.3178 63.9994 63.9999 62.3168 63.9999 60.2494V52.3744C63.9999 51.684 63.4403 51.1244 62.7499 51.1244C60.682 51.1244 58.9999 49.4418 58.9999 47.3744C58.9999 45.3066 60.682 43.6244 62.7499 43.6244C63.4403 43.6244 63.9999 43.0644 63.9999 42.3744V34.4994C63.9999 32.4316 62.3178 30.7495 60.2499 30.7495ZM38.2411 14.7983L49.2016 25.7587L44.2109 30.7495H39.2612L42.9257 27.0844C43.414 26.5966 43.414 25.8051 42.9257 25.3168C42.4379 24.8286 41.6464 24.8286 41.1581 25.3168L35.7255 30.749H22.2905L38.2411 14.7983ZM61.4999 41.2499C58.6508 41.8305 56.4999 44.3559 56.4999 47.3744C56.4999 50.3925 58.6508 52.9179 61.4999 53.4989V60.2494C61.4999 60.9384 60.9393 61.4994 60.2499 61.4994H3.74999C3.06054 61.4994 2.5 60.9384 2.5 60.2494V53.4989C5.34911 52.9179 7.49999 50.3925 7.49999 47.3744C7.49999 44.3559 5.34911 41.831 2.5 41.2499V34.4994C2.5 33.81 3.06054 33.2494 3.74999 33.2494H60.2499C60.9393 33.2494 61.4999 33.81 61.4999 34.4994V41.2499Z" fill="#FF2E63"/>
</svg>
