<!-- Generated by IcoMoon.io -->
<svg version="1.1" xmlns="http://www.w3.org/2000/svg" width="32" height="32" viewBox="0 0 32 32">
<title>house-1</title>
<path d="M23 20.5c0 0.495 0.147 0.978 0.421 1.389s0.665 0.732 1.122 0.921c0.457 0.189 0.959 0.239 1.444 0.142s0.93-0.335 1.28-0.684c0.35-0.349 0.588-0.795 0.684-1.28s0.047-0.988-0.142-1.444c-0.189-0.457-0.51-0.847-0.921-1.122s-0.894-0.421-1.389-0.421c-0.663 0.001-1.298 0.264-1.767 0.733s-0.732 1.104-0.733 1.767zM27 20.5c0 0.297-0.088 0.587-0.253 0.833s-0.399 0.439-0.673 0.553c-0.274 0.113-0.576 0.143-0.867 0.085s-0.558-0.201-0.768-0.41-0.353-0.477-0.41-0.768c-0.058-0.291-0.028-0.593 0.085-0.867s0.306-0.508 0.553-0.673c0.247-0.165 0.537-0.253 0.833-0.253 0.398 0 0.779 0.158 1.061 0.439s0.439 0.663 0.439 1.061z"></path>
<path d="M27.24 27.655c1.52-1.96 3.76-5.185 3.76-7.155-0.003-1.284-0.454-2.527-1.276-3.514s-1.962-1.656-3.224-1.891v-5.595l1.875 0.485c0.041 0.010 0.083 0.015 0.125 0.015 0.132 0 0.26-0.053 0.353-0.146s0.146-0.221 0.146-0.354v-3c0-0.111-0.037-0.219-0.104-0.307s-0.163-0.151-0.271-0.178l-13.5-3.5c-0.082-0.020-0.168-0.020-0.25 0l-13.5 3.5c-0.107 0.028-0.203 0.090-0.271 0.178s-0.105 0.196-0.104 0.307v3c-0 0.076 0.017 0.152 0.051 0.221s0.083 0.128 0.144 0.174c0.060 0.046 0.13 0.078 0.205 0.094s0.151 0.014 0.225-0.004l1.875-0.485v18c0 0.133 0.053 0.26 0.146 0.354s0.221 0.146 0.354 0.146h18.59c-0.64 0.28-1.090 0.69-1.090 1.25 0 1.2 2.075 1.75 4 1.75s4-0.55 4-1.75c0-0.865-1.055-1.365-2.26-1.595zM30 20.5c0 1.935-2.965 5.885-4.5 7.73-1.535-1.845-4.5-5.795-4.5-7.73 0-1.193 0.474-2.338 1.318-3.182s1.988-1.318 3.182-1.318c1.193 0 2.338 0.474 3.182 1.318s1.318 1.988 1.318 3.182zM18.5 16v-2c0.001-0.395 0.118-0.781 0.338-1.11s0.532-0.585 0.897-0.737c0.365-0.152 0.767-0.192 1.154-0.116s0.745 0.265 1.026 0.543c0.374 0.378 0.584 0.888 0.585 1.42v1.895l-0.15 0.105h-3.85zM2 8.855v-1.97l13-3.37 13 3.37v1.97l-12.875-3.34c-0.082-0.020-0.168-0.020-0.25 0l-12.875 3.34zM14.5 27h-2.5v-7h2.5v7zM18 27h-2.5v-7h2.5v7zM19 27v-7.5c0-0.133-0.053-0.26-0.146-0.353s-0.221-0.146-0.353-0.146h-7c-0.133 0-0.26 0.053-0.354 0.146s-0.146 0.221-0.146 0.353v7.5h-6.5v-17.76l10.5-2.725 10.5 2.725v5.76c-0.684 0.002-1.363 0.131-2 0.38v-1.38c0-0.796-0.316-1.559-0.879-2.121s-1.326-0.879-2.121-0.879c-0.796 0-1.559 0.316-2.121 0.879s-0.879 1.326-0.879 2.121v2h-0.5v1h4.26c-0.815 0.984-1.261 2.222-1.26 3.5 0 1.76 1.795 4.53 3.26 6.5h-4.26zM25.5 30c-1.92 0-2.94-0.55-3-0.74 0.045-0.155 0.685-0.55 1.98-0.7 0.355 0.44 0.6 0.72 0.645 0.77 0.047 0.053 0.105 0.096 0.169 0.125s0.135 0.044 0.206 0.044 0.141-0.015 0.206-0.044c0.065-0.029 0.122-0.072 0.169-0.125 0.045-0.050 0.29-0.33 0.645-0.77 1.295 0.15 1.935 0.545 1.98 0.68-0.060 0.21-1.080 0.76-3 0.76z"></path>
<path d="M13 23h1v1h-1v-1z"></path>
<path d="M16 23h1v1h-1v-1z"></path>
<path d="M12.5 16v-2c0-0.796-0.316-1.559-0.879-2.121s-1.326-0.879-2.121-0.879c-0.796 0-1.559 0.316-2.121 0.879s-0.879 1.326-0.879 2.121v2h-0.5v1h7v-1h-0.5zM11.5 16h-4v-2c0-0.53 0.211-1.039 0.586-1.414s0.884-0.586 1.414-0.586c0.53 0 1.039 0.211 1.414 0.586s0.586 0.884 0.586 1.414v2z"></path>
</svg>
