<!-- Generated by IcoMoon.io -->
<svg version="1.1" xmlns="http://www.w3.org/2000/svg" width="32" height="32" viewBox="0 0 32 32">
<title>smartphone-1</title>
<path d="M22.717 0h-13.435c-1.295 0-2.349 1.054-2.349 2.349v27.301c0 1.295 1.054 2.35 2.349 2.35h13.434c1.295 0 2.35-1.054 2.35-2.349v-27.301c0-1.295-1.054-2.349-2.349-2.349zM8 4.267h16v20.267h-16v-20.267zM9.283 1.067h13.434c0.708 0 1.283 0.575 1.283 1.283v0.851h-16v-0.851c0-0.707 0.575-1.283 1.283-1.283zM22.717 30.933h-13.435c-0.707 0-1.283-0.575-1.283-1.283v-4.051h16v4.051c0 0.707-0.575 1.283-1.283 1.283z"></path>
<path d="M16 26.133c-1.177 0-2.133 0.957-2.133 2.133s0.957 2.133 2.133 2.133c1.177 0 2.133-0.957 2.133-2.133s-0.957-2.133-2.133-2.133zM16 29.333c-0.588 0-1.067-0.478-1.067-1.067s0.478-1.067 1.067-1.067c0.588 0 1.067 0.478 1.067 1.067s-0.478 1.067-1.067 1.067z"></path>
<path d="M13.867 2.667h2.133c0.295 0 0.533-0.238 0.533-0.533s-0.238-0.533-0.533-0.533h-2.133c-0.295 0-0.533 0.238-0.533 0.533s0.238 0.533 0.533 0.533z"></path>
<path d="M17.6 2.667h0.533c0.295 0 0.533-0.238 0.533-0.533s-0.238-0.533-0.533-0.533h-0.533c-0.295 0-0.533 0.238-0.533 0.533s0.238 0.533 0.533 0.533z"></path>
<path d="M30.193 2.437c-0.209-0.209-0.546-0.209-0.754 0s-0.209 0.546 0 0.754c1.993 1.993 1.993 5.235 0 7.228-0.209 0.209-0.209 0.546 0 0.754 0.104 0.104 0.241 0.156 0.377 0.156s0.273-0.052 0.377-0.156c2.409-2.408 2.409-6.327 0-8.736z"></path>
<path d="M27.947 3.651c-0.209-0.209-0.546-0.209-0.754 0s-0.209 0.546 0 0.754c0.66 0.66 1.023 1.539 1.023 2.474s-0.363 1.814-1.023 2.474c-0.209 0.209-0.209 0.546 0 0.754 0.104 0.104 0.241 0.156 0.377 0.156s0.273-0.052 0.377-0.156c0.861-0.861 1.335-2.007 1.335-3.228s-0.474-2.367-1.335-3.228z"></path>
<path d="M2.562 3.191c0.209-0.209 0.209-0.546 0-0.754s-0.546-0.209-0.754 0c-2.409 2.409-2.409 6.327 0 8.736 0.104 0.104 0.241 0.156 0.377 0.156s0.273-0.052 0.377-0.156c0.209-0.209 0.209-0.546 0-0.754-1.993-1.993-1.993-5.235 0-7.228z"></path>
<path d="M4.807 3.503c-0.209-0.209-0.546-0.209-0.754 0-0.861 0.861-1.335 2.007-1.335 3.228s0.474 2.367 1.335 3.228c0.104 0.104 0.241 0.156 0.377 0.156s0.273-0.052 0.377-0.156c0.209-0.209 0.209-0.546 0-0.754-0.66-0.66-1.023-1.539-1.023-2.474s0.363-1.814 1.023-2.474c0.208-0.208 0.208-0.546 0-0.754z"></path>
</svg>
